<mxfile host="app.diagrams.net" agent="Mozilla/5.0 (Windows NT 10.0; Win64; x64) AppleWebKit/537.36 (KHTML, like Gecko) Chrome/128.0.0.0 Safari/537.36 Edg/128.0.0.0" version="24.7.6">
  <diagram name="Page-1" id="uMC_bz9FMdyxB1_HN4Ga">
    <mxGraphModel dx="852" dy="1667" grid="1" gridSize="10" guides="1" tooltips="1" connect="1" arrows="1" fold="1" page="1" pageScale="1" pageWidth="850" pageHeight="1100" math="0" shadow="0">
      <root>
        <mxCell id="0" />
        <mxCell id="1" parent="0" />
        <mxCell id="DJM_SvfMBua_TpQvclI_-20" value="&lt;h1 style=&quot;margin-top: 0px;&quot;&gt;&lt;span style=&quot;font-size: 12px; font-weight: 400;&quot;&gt;VLAN:&lt;/span&gt;&lt;/h1&gt;&lt;h1 style=&quot;margin-top: 0px;&quot;&gt;&lt;span style=&quot;font-size: 12px; font-weight: 400;&quot;&gt;IP ADDRESS:&lt;/span&gt;&lt;/h1&gt;&lt;h1 style=&quot;margin-top: 0px;&quot;&gt;&lt;span style=&quot;font-size: 12px; font-weight: 400;&quot;&gt;BGP AS:&lt;/span&gt;&lt;/h1&gt;&lt;h1 style=&quot;margin-top: 0px;&quot;&gt;&lt;span style=&quot;font-size: 12px; font-weight: 400;&quot;&gt;Default route created here.&lt;/span&gt;&lt;/h1&gt;&lt;div&gt;&lt;br&gt;&lt;/div&gt;" style="text;html=1;whiteSpace=wrap;overflow=hidden;rounded=0;" vertex="1" parent="1">
          <mxGeometry x="170" y="-190" width="180" height="120" as="geometry" />
        </mxCell>
        <mxCell id="DJM_SvfMBua_TpQvclI_-22" value="" style="group" vertex="1" connectable="0" parent="1">
          <mxGeometry x="120" y="-520" width="679" height="120" as="geometry" />
        </mxCell>
        <mxCell id="DJM_SvfMBua_TpQvclI_-3" value="&lt;font style=&quot;font-size: 14px;&quot;&gt;8713&lt;/font&gt;" style="whiteSpace=wrap;html=1;aspect=fixed;" vertex="1" parent="DJM_SvfMBua_TpQvclI_-22">
          <mxGeometry x="559" width="120" height="120" as="geometry" />
        </mxCell>
        <mxCell id="DJM_SvfMBua_TpQvclI_-21" value="" style="group" vertex="1" connectable="0" parent="DJM_SvfMBua_TpQvclI_-22">
          <mxGeometry width="562" height="120" as="geometry" />
        </mxCell>
        <mxCell id="DJM_SvfMBua_TpQvclI_-1" value="&lt;b&gt;&lt;font style=&quot;font-size: 14px;&quot;&gt;8712&lt;/font&gt;&lt;/b&gt;" style="whiteSpace=wrap;html=1;aspect=fixed;" vertex="1" parent="DJM_SvfMBua_TpQvclI_-21">
          <mxGeometry width="120" height="120" as="geometry" />
        </mxCell>
        <mxCell id="DJM_SvfMBua_TpQvclI_-5" value="&lt;b&gt;&lt;font style=&quot;font-size: 14px;&quot;&gt;route-map-isue device&lt;/font&gt;&lt;/b&gt;&lt;div&gt;&lt;font style=&quot;&quot;&gt;&lt;span style=&quot;font-size: 14px;&quot;&gt;&lt;b&gt;Z9264F-ON&lt;/b&gt;&lt;/span&gt;&lt;br&gt;&lt;/font&gt;&lt;/div&gt;" style="rounded=1;whiteSpace=wrap;html=1;" vertex="1" parent="DJM_SvfMBua_TpQvclI_-21">
          <mxGeometry x="240" width="200" height="120" as="geometry" />
        </mxCell>
        <mxCell id="DJM_SvfMBua_TpQvclI_-8" value="" style="endArrow=none;html=1;rounded=0;entryX=0;entryY=0.5;entryDx=0;entryDy=0;" edge="1" parent="DJM_SvfMBua_TpQvclI_-21" target="DJM_SvfMBua_TpQvclI_-5">
          <mxGeometry width="50" height="50" relative="1" as="geometry">
            <mxPoint x="118" y="59" as="sourcePoint" />
            <mxPoint x="178" y="59" as="targetPoint" />
          </mxGeometry>
        </mxCell>
        <mxCell id="DJM_SvfMBua_TpQvclI_-9" value="" style="endArrow=none;html=1;rounded=0;entryX=0;entryY=0.5;entryDx=0;entryDy=0;" edge="1" parent="DJM_SvfMBua_TpQvclI_-21">
          <mxGeometry width="50" height="50" relative="1" as="geometry">
            <mxPoint x="440" y="59.5" as="sourcePoint" />
            <mxPoint x="562" y="60.5" as="targetPoint" />
          </mxGeometry>
        </mxCell>
        <mxCell id="DJM_SvfMBua_TpQvclI_-15" value="&lt;font style=&quot;font-size: 14px;&quot;&gt;Trunk port&lt;/font&gt;" style="text;html=1;align=center;verticalAlign=middle;whiteSpace=wrap;rounded=0;" vertex="1" parent="DJM_SvfMBua_TpQvclI_-21">
          <mxGeometry x="120" y="30" width="120" height="30" as="geometry" />
        </mxCell>
        <mxCell id="DJM_SvfMBua_TpQvclI_-16" value="&lt;font style=&quot;font-size: 14px;&quot;&gt;Trunk port&lt;/font&gt;" style="text;html=1;align=center;verticalAlign=middle;whiteSpace=wrap;rounded=0;" vertex="1" parent="DJM_SvfMBua_TpQvclI_-21">
          <mxGeometry x="440" y="30" width="120" height="30" as="geometry" />
        </mxCell>
      </root>
    </mxGraphModel>
  </diagram>
</mxfile>
